<?xml version="1.0" standalone="no"?>
<!DOCTYPE svg PUBLIC "-//W3C//DTD SVG 20010904//EN"
 "http://www.w3.org/TR/2001/REC-SVG-20010904/DTD/svg10.dtd">
<svg version="1.0" xmlns="http://www.w3.org/2000/svg"
 width="151.000000pt" height="151.000000pt" viewBox="0 0 151.000000 151.000000"
 preserveAspectRatio="xMidYMid meet">
<metadata>
Created by potrace 1.14, written by Peter Selinger 2001-2017
</metadata>
<g transform="translate(0.000000,151.000000) scale(0.100000,-0.100000)"
fill="#000000" stroke="none">
<path d="M306 989 c-50 -8 -86 -47 -86 -94 0 -27 10 -43 60 -91 41 -41 57 -63
51 -73 -10 -16 -71 -17 -99 -2 -25 13 -29 4 -24 -45 3 -21 11 -35 22 -39 31
-10 124 -7 150 4 52 22 65 39 65 87 0 43 -4 49 -60 100 -56 50 -59 55 -42 68
17 13 46 13 90 0 16 -5 17 -1 13 36 -3 24 -6 44 -8 45 -7 8 -97 10 -132 4z"/>
<path d="M663 983 c-7 -3 -43 -55 -79 -116 -37 -62 -82 -133 -101 -159 -36
-50 -134 -115 -154 -102 -8 5 -9 3 -4 -6 6 -10 4 -12 -8 -7 -10 3 -17 2 -17
-3 0 -5 -7 -7 -15 -4 -8 4 -15 1 -15 -5 0 -6 -5 -11 -11 -11 -5 0 -7 5 -4 10
3 6 2 10 -4 10 -5 0 -13 -5 -16 -10 -4 -6 -11 -8 -16 -4 -5 3 -16 1 -24 -6 -8
-6 -16 -7 -19 -2 -6 11 -92 9 -103 -1 -3 -4 0 -7 7 -7 7 0 19 -8 27 -17 8 -10
11 -12 7 -4 -5 11 -3 13 10 8 10 -4 21 -7 24 -7 4 0 0 -5 -8 -10 -9 -6 -10
-10 -3 -10 6 0 15 5 18 11 5 6 12 4 22 -8 8 -10 11 -11 7 -3 -7 13 -5 13 9 1
11 -9 17 -10 17 -2 0 6 5 11 11 11 5 0 8 -4 5 -9 -3 -5 3 -11 14 -14 11 -3 18
-1 15 3 -3 5 15 7 39 6 25 -1 43 1 41 4 -2 4 9 7 26 8 17 0 42 8 56 17 14 10
22 12 19 6 -5 -7 -1 -9 8 -5 9 3 13 11 10 16 -4 6 2 8 15 3 15 -4 21 -2 21 9
0 8 5 18 12 22 7 5 8 3 3 -5 -6 -10 -3 -11 14 -2 11 7 21 14 21 17 0 3 -5 2
-12 -2 -7 -5 -8 -3 -4 5 5 7 14 10 21 7 9 -3 12 2 10 15 -2 11 0 17 5 14 4 -3
11 1 14 7 3 7 3 2 0 -12 -5 -24 -4 -24 10 -6 8 10 19 15 24 12 5 -3 15 1 22 9
7 8 17 12 23 8 6 -3 7 -1 3 5 -4 7 -1 12 6 13 22 1 49 7 66 15 23 9 50 12 59
5 5 -3 35 -40 67 -81 83 -106 84 -106 30 1 -46 89 -47 95 -27 91 18 -3 23 -11
23 -36 0 -31 0 -31 55 -32 49 0 55 2 55 21 0 12 5 26 12 33 8 8 9 12 1 12 -6
0 -11 14 -10 33 l2 32 66 3 66 3 1 38 2 38 -63 -1 c-61 -1 -62 0 -65 27 l-3
27 78 0 79 0 2 40 3 40 -136 0 -135 0 -1 -87 c-1 -141 -3 -158 -18 -164 -32
-12 -58 17 -112 124 -53 106 -71 129 -96 120z m47 -183 c32 -41 51 -92 26 -71
-7 6 -17 7 -21 3 -5 -4 -5 -2 -2 5 5 7 1 10 -10 8 -10 -2 -26 -4 -35 -4 -10
-1 -18 -6 -18 -12 0 -5 5 -7 12 -3 7 4 8 3 4 -5 -4 -6 -11 -9 -16 -6 -11 7
-41 -5 -35 -14 2 -4 -2 -8 -10 -8 -9 0 -11 4 -6 11 5 6 9 13 8 16 -2 6 63 120
68 120 2 0 17 -18 35 -40z m-87 -128 c4 9 6 9 6 1 2 -20 -16 -24 -30 -5 -13
15 -12 16 3 4 13 -10 17 -10 21 0z"/>
<path d="M1185 978 c-2 -7 -6 -80 -10 -162 -3 -83 -7 -154 -8 -160 -3 -14 266
-16 275 -2 4 6 8 23 8 39 l0 27 -85 0 -85 0 0 30 c0 16 3 29 8 29 4 -1 37 -1
75 0 l67 1 0 39 0 39 -67 -1 c-67 -2 -68 -2 -71 26 l-3 27 85 0 86 0 0 40 0
40 -135 0 c-100 0 -137 -3 -140 -12z"/>
</g>
</svg>
